/* XPM */
static char *result[] = {
/* columns rows colors chars-per-pixel */
"64 64 82 1 ",
"  c black",
". c #000400",
"X c gray3",
"o c #202020",
"O c #313431",
"+ c #343434",
"@ c #363736",
"# c #363836",
"$ c #393839",
"% c #3C3B3C",
"& c #444744",
"* c gray28",
"= c #4A484A",
"- c #4A4C4A",
"; c #4C4F4C",
": c #4F504F",
"> c #525552",
", c #525652",
"< c #555355",
"1 c #555755",
"2 c #575857",
"3 c #5A5A5A",
"4 c #686868",
"5 c #6D6E6D",
"6 c #6D716D",
"7 c #727172",
"8 c #787678",
"9 c #7B7D7B",
"0 c #837D83",
"q c #838583",
"w c #888688",
"e c #888A88",
"r c #949194",
"t c #999E99",
"y c #9C999C",
"u c #9C9D9C",
"i c #9EA19E",
"p c #A4A5A4",
"a c #A4A6A4",
"s c #A4A8A4",
"d c #A4AAA4",
"f c #A7A8A7",
"g c #AAA6AA",
"h c #AAAAAA",
"j c #AAABAA",
"k c #ACAAAC",
"l c #ACACAC",
"z c #AFB3AF",
"x c #B4B2B4",
"c c #BCBBBC",
"v c #BDBABD",
"b c #BDBEBD",
"n c #BDC2BD",
"m c #C5CEC5",
"M c #C8C8C8",
"N c #CDCACD",
"B c #CDCCCD",
"V c #CDCECD",
"C c #CDCFCD",
"Z c #D5D2D5",
"A c #D5D6D5",
"S c #DDDBDD",
"D c #DEDADE",
"F c #DDDCDD",
"G c #DDDEDD",
"H c gray87",
"J c #DEE6DE",
"K c #DEEEDE",
"L c #E6E2E6",
"P c #E6E6E6",
"I c #E6EEE6",
"U c #EEEAEE",
"Y c #EEEBEE",
"T c #EEEDEE",
"R c #EEEEEE",
"E c #EEF2EE",
"W c #F3F6F3",
"Q c #F6F5F6",
"! c #F6FAF6",
"~ c #FFFAFF",
"^ c white",
"/ c None",
/* pixels */
"////////////////////////////////////////////////////////////////",
"///////////////////////////////  ///////////////////////////////",
"//////////////////////////////    //////////////////////////////",
"/////////////////////////////      /////////////////////////////",
"/////////////////////////////      /////////////////////////////",
"////////////////////////////        ////////////////////////////",
"///////////////////////////          ///////////////////////////",
"//////////////////////////            //////////////////////////",
"/////////////////////////              /////////////////////////",
"////////////////////////                ////////////////////////",
"///////////////////////        tN        ///////////////////////",
"//////////////////////        tINw        //////////////////////",
"//////////////////////  .... tIIDDr       //////////////////////",
"/////////////////////   ....;IIIDDD=       /////////////////////",
"////////////////////    ....IIIIDDDD%       ////////////////////",
"///////////////////     ...RIIIIDDDDx        ///////////////////",
"///////////////////     XXl^RRR^^GGVVe..     ///////////////////",
"//////////////////      Xl^^RR^^^RGVVVe.      //////////////////",
"/////////////////       3^^^RR^^^RGVVVV&       /////////////////",
"////////////////       o^^^^R^^^^RRVVVVeo       ////////////////",
"////////////////    ...j^^^^^^^^^QYLCCnnx       ////////////////",
"///////////////     ..j^^^^^^^^^^QYYCCnnx8       ///////////////",
"//////////////      .1^^^^^^^^^^^QYYFCnnxx%       //////////////",
"//////////////      .^^^^^^^^^^^^QYYUCnnxxx       //////////////",
"/////////////       k^^^^^^^^^^^^WEERGbbbbf9       /////////////",
"/////////////      :^^^^^^^^^^^^^WEERRVbbbff+      /////////////",
"////////////       E^^^^^^^^^^^^^WEERRGbbbffu       ////////////",
"///////////       iE^^^^^^^^^^^^^WEERRGbbbffu4       ///////////",
"///////////      <~~^^^^^^^^^^^^^WEERRGAcckkdd#      ///////////",
"///////////      g~~^^^^^^^^^^^^^WEERRGGcckkdd6      ///////////",
"//////////      <~~~^^^^^^^^^^^^^WEERRGGBckkddd#      //////////",
"//////////      ~~~~^^^^^^^^^^^^^WEERRGGHckkdddd      //////////",
"/////////   ...1^^^^^^^^^^^^^^^^^WEERRHHHBkkhhhh$      /////////",
"/////////   ...j^^^^^^^^^^^^^^^^^WEERRHHHHckhhhh7      /////////",
"/////////   ...^^^^^^^^^^^^^^^^^^WEERRHHHHckhhhhk      /////////",
"////////    ..1^^^^^^^^^^^^^^^^^^WEERRHHHHBkhhhhk$      ////////",
"////////      h^^^^^^^^^^^^^^^^^^WEERRHHHHMbhhhhk7      ////////",
"////////      ^^^^^^^^^^^^^^^^^^^WEERRHHHHMbhhhhkk      ////////",
"////////      ^^^^^^^^^^^^^^^^^^^WEERRHHHHMMhhhhkk      ////////",
"////////      ^^^^^^^^^^^^^^^^^^^WEERRHHHHMMhhhhkk      ////////",
"////////      !!^^^^^^^^^^^^^^^^^WEERRHHHHBBhhhhdd      ////////",
"////////      !!^^^^^^^^^^^^^^^^^WEERRHHHHBchhhhdd      ////////",
"////////      !!^^^^^^^^^^^^^^^^^WEERRHHHHBkhhhhdd      ////////",
"////////      a!^^^^^^^^^^^^^^^^^WEERRHHHHBkhhhhd6      ////////",
"////////    ..,!^^^^^^^^^^^^^^^^^WEERRSSHHckhhhhp@      ////////",
"/////////   ...!^^^^^^^^^^^^^^^^^WEERRSSHBkkhhhhp      /////////",
"/////////   ...s^^^^^^^^^^^^^^^^^WEERRSSBckkhhhh5      /////////",
"/////////   ....^^^^^^^^^^^^^^^^^WEERRSZcckkhhhh@      /////////",
"//////////      g~~~^^^^^^^^^^^^^TTTUFCnvvkkppp5      //////////",
"//////////       ~~~^^^^^^^^^^^^^TTTFCnnvvkkppp       //////////",
"///////////      <~~^^^^^^^^RRRRTSSNCCnnvvkkpp@      ///////////",
"///////////       <~^^^^^^^^RRRPSSSNCCnnvvkkp@       ///////////",
"////////////       >!!!!^^^^RRRKHHHNmmmzxxxxO       ////////////",
"/////////////       ,!!!^^^^RRRKHHHNmmmzxxx%       /////////////",
"/////////////       ..s!^^^^RRRKHHHNmmmzx8         /////////////",
"//////////////      ....y^^^RRRKHHHNmmm0%         //////////////",
"///////////////           5pJJJJAAAAq2           ///////////////",
"////////////////              --**              ////////////////",
"//////////////////                            //////////////////",
"///////////////////                          ///////////////////",
"/////////////////////                      /////////////////////",
"///////////////////////                  ///////////////////////",
"//////////////////////////            //////////////////////////",
"////////////////////////////////////////////////////////////////"
};
