/* XPM */
static char *__point[] = {
/* columns rows colors chars-per-pixel */
"50 50 83 1 ",
"  c None",
". c #FD0303",
"X c #FD0403",
"o c #FD0703",
"O c #FD0803",
"+ c #FD0903",
"@ c #FD1D02",
"# c #FD1E02",
"$ c #FD2102",
"% c #FD2302",
"& c #FD2602",
"* c #FD2802",
"= c #FD2902",
"- c #FD2A02",
"; c #FD2D02",
": c #FD2E02",
"> c #FD2F02",
", c #FD3002",
"< c #FD3602",
"1 c #FD3702",
"2 c #FD3802",
"3 c #FD3B02",
"4 c #FD3D02",
"5 c #FD3E02",
"6 c #FD3F02",
"7 c #FD4002",
"8 c #FD4102",
"9 c #FD4402",
"0 c #FD4602",
"q c #FD4702",
"w c #FD4902",
"e c #FD4A02",
"r c #FD4C02",
"t c #FD4D02",
"y c #FD4F02",
"u c #FD5301",
"i c #FD5002",
"p c #FD5102",
"a c #FD5801",
"s c #FD5A01",
"d c #FD5C01",
"f c #FD5D01",
"g c #FE5D01",
"h c #FD5F01",
"j c #FE5E01",
"k c #FD6001",
"l c #FE6601",
"z c #FE6A01",
"x c #FE6B01",
"c c #FE6C01",
"v c #FE6D01",
"b c #FE7701",
"n c #FE7801",
"m c #FE7F01",
"M c #BF9D00",
"N c #FE8001",
"B c #FE9500",
"V c #FE9700",
"C c #FE9D00",
"Z c #FEA000",
"A c #FEA700",
"S c #FEAB00",
"D c #FEAF00",
"F c #FEB000",
"G c #FEB400",
"H c #FEB500",
"J c #FEB900",
"K c #FEBB00",
"L c #FEBC00",
"P c #FEBD00",
"I c #FEBE00",
"U c #FEBF00",
"Y c #FEC000",
"T c #FEC100",
"R c #FEC200",
"E c #FEC400",
"W c #FFC600",
"Q c #FFC700",
"! c #FFC900",
"~ c #FFCA00",
"^ c #FFD000",
"/ c #FFD100",
"( c #FFD200",
/* pixels */
"                                                  ",
"                                                  ",
"                                                  ",
"                                                  ",
"                                                  ",
"                                                  ",
"                       ((((                       ",
"                    (Gc5-&5cGM                    ",
"                   EiX......XiE                   ",
"                  U%..........%U                  ",
"                 (2............1(                 ",
"                 Z..............B                 ",
"                 l..............a                 ",
"                 r..............5M                ",
"                 r..............5(                ",
"                 z..............h                 ",
"                 A..............C                 ",
"                 (8............2(                 ",
"                  R-..........-R                  ",
"                   ~h+......+h~                   ",
"                    (RNi88imUM                    ",
"                       M((M                       ",
"                                                  ",
"                                                  ",
"                                                  ",
"                                                  ",
"                                                  ",
"                        ((                        ",
"                    MUb9>>9nUM                    ",
"                   ~hX......+k~                   ",
"                  E>..........>E                  ",
"                 (w............9(                 ",
"                 S..............Z                 ",
"                 c..............h                 ",
"                 r..............5M                ",
"                 r..............5(                ",
"                 l..............a                 ",
"                 Z..............B                 ",
"                 (1............,(                 ",
"                  K#..........#K                  ",
"                   RwX.......wR                   ",
"                    (Fc8>>5zD(                    ",
"                       M(((                       ",
"                                                  ",
"                                                  ",
"                                                  ",
"                                                  ",
"                                                  ",
"                                                  ",
"                                                  "
};
